<?xml version="1.0" standalone="no"?>
<!DOCTYPE svg PUBLIC "-//W3C//DTD SVG 20010904//EN"
 "http://www.w3.org/TR/2001/REC-SVG-20010904/DTD/svg10.dtd">
<svg version="1.0" xmlns="http://www.w3.org/2000/svg"
 width="300.000000pt" height="300.000000pt" viewBox="0 0 300.000000 300.000000"
 preserveAspectRatio="xMidYMid meet">
<metadata>
Created by potrace 1.10, written by Peter Selinger 2001-2011
</metadata>
<g transform="translate(0.000000,300.000000) scale(0.100000,-0.100000)"
fill="#ffffff" stroke="none">
<path d="M328 1855 c-10 -22 -9 -29 8 -44 10 -10 37 -23 59 -29 22 -6 49 -18
59 -25 27 -20 14 -47 -23 -47 -23 0 -33 7 -43 28 -12 25 -18 27 -68 27 -54 0
-55 0 -58 -31 -4 -39 36 -90 78 -99 l30 -7 0 -94 c0 -92 0 -94 25 -100 36 -9
39 -1 21 52 -9 26 -16 69 -16 95 0 39 4 49 20 54 38 12 80 64 80 100 0 39 -30
63 -92 73 -47 8 -65 32 -24 32 13 0 28 -4 31 -10 9 -14 25 -12 25 3 0 23 -35
47 -69 47 -24 0 -34 -6 -43 -25z m40 -132 c2 -9 -9 -13 -37 -13 -39 0 -57 10
-44 24 12 11 76 2 81 -11z m41 -42 c24 -15 -24 -35 -50 -20 -17 9 -19 13 -8
20 8 5 21 9 29 9 8 0 21 -4 29 -9z"/>
<path d="M618 1870 c-27 -17 -58 -75 -58 -112 0 -41 34 -97 70 -115 42 -21 95
-16 129 13 l31 26 31 -26 c54 -46 140 -28 179 37 51 83 -6 187 -103 187 -45 0
-64 -22 -49 -55 10 -22 18 -25 61 -25 67 0 81 -7 81 -40 0 -42 -19 -51 -102
-48 l-73 3 -1 30 c-1 57 -4 64 -35 100 -33 37 -56 44 -65 20 -12 -30 5 -65 31
-65 35 0 51 -34 30 -66 -14 -22 -22 -24 -89 -24 -80 0 -100 11 -94 51 3 22 15
32 51 43 12 4 17 16 17 41 0 36 -11 43 -42 25z"/>
<path d="M1050 1860 c-23 -44 21 -92 65 -72 49 23 30 92 -25 92 -19 0 -33 -7
-40 -20z m65 -19 c3 -5 1 -13 -5 -16 -15 -9 -43 3 -35 15 8 13 32 13 40 1z"/>
<path d="M1263 1860 c-31 -18 -53 -48 -53 -69 0 -14 37 -14 45 -1 9 14 148 13
163 -2 7 -7 12 -21 12 -33 0 -12 -5 -26 -12 -33 -15 -15 -154 -16 -163 -2 -8
13 -45 13 -45 -1 0 -22 21 -48 56 -69 50 -32 115 -24 157 19 25 25 32 40 33
78 l2 48 77 3 c81 3 105 -6 105 -39 0 -31 -28 -49 -79 -49 -54 0 -74 -16 -69
-52 3 -20 8 -23 50 -22 55 0 89 26 123 91 35 70 41 73 125 73 80 0 100 -9 100
-45 0 -33 -20 -45 -76 -45 -57 0 -78 -15 -72 -52 3 -20 10 -23 50 -26 42 -3
51 1 85 32 35 32 38 38 38 91 0 53 -3 59 -37 91 -30 27 -46 34 -79 34 -52 0
-102 -30 -119 -71 l-13 -31 -12 30 c-31 72 -133 98 -192 48 l-28 -24 -28 24
c-35 30 -99 32 -144 4z"/>
<path d="M1952 1868 c-19 -19 -15 -66 7 -78 11 -5 24 -10 30 -10 16 0 51 38
51 54 0 37 -61 61 -88 34z m56 -35 c2 -8 -5 -13 -17 -13 -12 0 -21 6 -21 16 0
18 31 15 38 -3z"/>
<path d="M2130 1838 c-49 -68 -36 -152 30 -192 63 -37 158 -6 181 59 7 19 16
32 21 29 4 -3 13 7 19 23 15 39 24 43 110 43 80 0 99 -9 99 -47 0 -29 -27 -43
-83 -43 -50 0 -70 -16 -65 -52 2 -19 10 -23 43 -26 50 -3 83 14 112 57 38 56
25 125 -33 170 -34 27 -98 28 -140 2 -28 -17 -63 -72 -65 -103 0 -7 -5 3 -11
22 -13 47 -55 100 -79 100 -15 0 -19 -7 -19 -35 0 -25 5 -37 18 -41 49 -15 66
-50 40 -81 -11 -14 -13 -13 -18 8 -5 21 -12 24 -63 27 -53 3 -58 1 -68 -22
-15 -33 -29 -24 -29 19 0 29 4 36 28 41 33 8 42 20 42 57 0 42 -34 35 -70 -15z
m135 -113 c0 -5 -19 -11 -42 -13 -40 -3 -53 5 -36 22 11 10 78 3 78 -9z m15
-40 c0 -14 -45 -25 -73 -18 l-32 7 45 7 c25 3 48 7 53 7 4 1 7 0 7 -3z"/>
<path d="M2646 1861 c-35 -38 12 -94 59 -73 49 23 34 92 -20 92 -12 0 -30 -9
-39 -19z m59 -20 c3 -5 1 -13 -5 -16 -15 -9 -43 3 -35 15 8 13 32 13 40 1z"/>
<path d="M1056 1708 c-21 -29 -20 -41 2 -61 25 -23 58 -21 76 4 16 23 12 47
-12 67 -24 18 -49 15 -66 -10z m59 -27 c3 -5 1 -13 -5 -16 -15 -9 -43 3 -35
15 8 13 32 13 40 1z"/>
<path d="M1958 1719 c-21 -12 -24 -59 -6 -77 18 -18 53 -14 74 9 17 19 17 23
3 47 -16 29 -44 38 -71 21z m50 -41 c-7 -19 -38 -22 -38 -4 0 10 9 16 21 16
12 0 19 -5 17 -12z"/>
<path d="M2650 1710 c-11 -11 -20 -23 -20 -28 0 -20 34 -52 55 -52 21 0 55 32
55 52 0 14 -39 48 -55 48 -8 0 -24 -9 -35 -20z m60 -29 c0 -6 -5 -13 -10 -16
-15 -9 -43 3 -35 15 8 13 45 13 45 1z"/>
<path d="M888 1588 c20 -20 12 -128 -10 -128 -5 0 -8 28 -7 63 3 60 2 62 -22
65 -25 3 -26 2 -21 -51 2 -31 -1 -63 -7 -76 -11 -20 -9 -21 26 -21 38 0 37
-13 -2 -24 -11 -3 -4 -3 15 0 19 3 55 5 79 5 58 -2 93 21 89 57 -2 21 -9 28
-29 30 -15 2 -32 -4 -40 -14 -12 -15 -12 -16 8 -10 30 10 48 -1 32 -20 -18
-22 -43 -17 -56 12 -13 28 -6 94 10 94 5 0 4 7 -3 15 -7 8 -26 15 -43 15 -24
0 -28 -3 -19 -12z"/>
<path d="M0 1285 c0 -13 173 -15 1500 -15 1327 0 1500 2 1500 15 0 13 -173 15
-1500 15 -1327 0 -1500 -2 -1500 -15z"/>
<path d="M0 1190 l0 -30 1500 0 1500 0 0 30 0 30 -1500 0 -1500 0 0 -30z"/>
<path d="M453 1073 c-7 -3 -13 -15 -13 -28 0 -13 6 -26 13 -29 6 -2 -4 -4 -23
-3 -27 2 -35 -2 -37 -18 -1 -11 0 -14 3 -7 7 14 34 16 34 2 0 -5 -5 -10 -12
-10 -9 0 -9 -3 0 -12 18 -18 14 -30 -8 -23 -11 4 -20 2 -20 -4 0 -6 14 -11 31
-11 27 0 31 3 26 21 -7 27 1 49 19 49 16 0 19 -36 4 -45 -15 -9 -12 -25 5 -25
11 0 15 11 15 40 0 24 -5 40 -12 40 -9 0 -9 3 0 12 26 26 7 62 -25 51z"/>
<path d="M515 1070 c-4 -6 -5 -20 -4 -33 1 -12 -1 -30 -5 -39 -15 -33 -3 -63
24 -63 21 0 26 5 28 33 2 24 -2 39 -17 51 -21 18 -28 41 -13 41 4 0 13 -5 20
-12 9 -9 12 -8 12 4 0 9 -7 19 -16 22 -21 8 -22 8 -29 -4z m35 -91 c0 -12 -7
-19 -20 -19 -22 0 -26 20 -8 38 15 15 28 6 28 -19z"/>
<path d="M919 1064 c-10 -13 -10 -19 0 -36 12 -19 11 -20 -12 -14 -16 4 -29 1
-37 -8 -15 -19 -9 -68 8 -74 11 -3 11 0 1 16 -14 22 -5 56 14 49 6 -2 11 -18
11 -36 -2 -41 14 -40 18 1 2 17 9 33 15 36 19 6 28 -28 14 -50 -10 -16 -10
-19 1 -16 22 7 21 61 -2 85 -11 12 -20 27 -20 33 0 14 17 13 23 -2 2 -7 8 -10
12 -6 8 8 -12 38 -25 38 -4 0 -13 -7 -21 -16z"/>
<path d="M1361 1062 c-6 -11 -6 -24 -1 -32 5 -9 5 -19 -1 -27 -6 -6 -9 -24 -7
-40 2 -22 8 -28 28 -28 21 0 26 5 28 33 2 24 -2 39 -17 51 -21 18 -28 41 -13
41 4 0 13 -5 20 -12 9 -9 12 -8 12 4 0 9 -7 19 -16 22 -22 8 -22 8 -33 -12z
m37 -93 c-3 -26 -18 -29 -32 -6 -7 10 -5 21 4 32 17 20 33 6 28 -26z"/>
<path d="M1583 1068 c-6 -7 -10 -40 -9 -73 1 -50 4 -60 20 -63 20 -4 44 14 33
24 -4 4 -13 2 -20 -4 -17 -15 -27 -6 -27 25 0 14 6 23 15 23 8 0 15 -4 15 -10
0 -5 5 -10 10 -10 16 0 12 14 -10 38 -11 12 -20 26 -20 32 0 14 17 13 23 -2 2
-7 8 -10 12 -6 8 8 -12 38 -25 38 -4 0 -12 -6 -17 -12z"/>
<path d="M2253 1068 c-6 -7 -10 -40 -9 -73 1 -57 2 -60 26 -60 21 0 26 5 28
33 2 24 -2 39 -17 51 -22 19 -28 41 -12 41 5 0 11 -6 14 -12 2 -7 8 -10 12 -6
8 8 -12 38 -25 38 -4 0 -12 -6 -17 -12z m33 -84 c8 -30 -10 -54 -27 -37 -13
13 -4 63 11 63 5 0 13 -12 16 -26z"/>
<path d="M2392 1072 c-19 -12 -12 -74 11 -99 11 -13 17 -26 14 -30 -4 -3 -7
-1 -7 5 0 12 -58 13 -66 0 -8 -13 -24 1 -24 22 0 24 20 37 31 19 4 -7 11 -10
15 -6 13 12 -21 38 -40 31 -13 -5 -16 -16 -14 -43 3 -32 6 -36 33 -37 17 -1
36 -2 43 -3 6 0 12 -14 12 -31 0 -16 5 -30 10 -30 6 0 8 11 4 26 -9 34 3 40
68 38 52 -1 53 -2 56 -32 4 -42 27 -42 27 1 0 27 3 32 23 30 14 -2 22 3 22 13
0 10 -6 14 -15 10 -10 -4 -15 1 -15 14 0 13 5 18 15 14 9 -4 15 0 15 8 0 9
-12 14 -37 15 -21 0 -32 -2 -25 -4 14 -5 17 -59 3 -67 -10 -7 -21 16 -21 44 0
26 -27 45 -44 31 -7 -6 -21 -9 -30 -5 -11 4 -16 1 -16 -10 0 -16 24 -18 48 -3
16 11 32 0 32 -23 0 -22 -19 -37 -29 -22 -3 6 -18 10 -32 8 -16 -2 -30 5 -42
21 -11 14 -13 23 -6 23 7 0 6 8 -4 24 -18 27 -11 42 11 24 12 -10 14 -9 11 6
-5 22 -19 29 -37 18z"/>
<path d="M636 1052 c-8 -13 5 -52 16 -52 6 0 8 -13 4 -32 -18 -88 -18 -98 -3
-98 10 0 13 7 10 24 -3 13 0 32 6 43 6 10 11 12 11 6 0 -18 30 -16 30 2 0 8
-7 15 -15 15 -8 0 -15 5 -15 10 0 6 7 10 15 10 8 0 15 7 15 16 0 9 -8 14 -17
13 -34 -3 -41 1 -36 20 5 19 -12 38 -21 23z"/>
<path d="M996 1051 c-3 -5 -3 -16 0 -25 3 -9 1 -16 -5 -16 -14 0 -15 -67 -1
-75 6 -3 10 -19 10 -36 0 -21 5 -29 17 -29 13 0 14 3 5 12 -7 7 -12 27 -12 44
0 18 -4 36 -10 39 -15 10 -12 35 5 35 12 0 15 -13 15 -55 0 -30 5 -55 10 -55
6 0 10 25 10 55 0 41 -4 57 -15 61 -10 4 -13 13 -10 24 6 20 -10 37 -19 21z"/>
<path d="M583 1013 c-7 -2 -13 -12 -13 -21 0 -12 3 -13 12 -4 19 19 28 14 28
-18 0 -32 -8 -37 -29 -17 -11 10 -13 9 -9 -3 3 -9 18 -15 36 -16 29 -1 31 1
25 30 -9 48 -22 61 -50 49z"/>
<path d="M801 1006 c-7 -8 -11 -27 -9 -43 2 -22 8 -28 28 -28 21 0 26 5 28 34
5 45 -23 66 -47 37z m39 -30 c0 -36 -17 -41 -22 -6 -3 20 0 30 9 30 7 0 13
-11 13 -24z"/>
<path d="M1124 1009 c-3 -6 -1 -16 5 -22 8 -8 11 -8 11 1 0 7 7 12 16 12 14 0
14 -3 4 -15 -10 -12 -10 -18 1 -32 13 -15 11 -16 -13 -9 -17 4 -28 2 -28 -4 0
-11 53 -14 63 -3 4 3 2 12 -5 20 -9 11 -8 18 5 31 24 23 44 3 26 -26 -14 -22
-8 -39 10 -27 15 9 14 62 -1 72 -20 12 -86 14 -94 2z"/>
<path d="M1253 1013 c-19 -7 -17 -83 2 -83 17 0 20 25 5 35 -15 10 -12 35 5
35 9 0 15 -9 15 -24 0 -14 7 -31 15 -40 8 -8 15 -26 15 -40 0 -17 6 -26 15
-26 13 0 13 3 3 20 -10 16 -10 24 0 40 17 27 15 77 -3 84 -8 3 -15 1 -15 -4 0
-6 5 -10 10 -10 12 0 13 -40 1 -59 -8 -12 -11 -8 -16 15 -11 53 -25 68 -52 57z"/>
<path d="M1513 1005 c-3 -9 2 -24 12 -35 16 -18 16 -18 -4 -13 -15 4 -21 1
-21 -11 0 -9 5 -16 11 -16 7 0 10 -12 7 -30 -3 -20 0 -30 9 -30 8 0 13 12 13
30 0 17 5 30 10 30 16 0 12 21 -7 43 -13 15 -15 21 -5 24 6 3 10 9 6 14 -8 14
-24 11 -31 -6z"/>
<path d="M1654 1005 c-4 -9 -4 -19 0 -22 3 -4 6 -1 6 5 0 7 7 12 15 12 18 0
20 -16 3 -24 -10 -5 -10 -7 0 -12 20 -9 14 -26 -8 -19 -11 4 -20 2 -20 -4 0
-6 14 -11 31 -11 27 0 31 3 26 21 -7 27 1 49 19 49 16 0 19 -36 4 -45 -15 -9
-12 -25 5 -25 11 0 15 11 15 40 0 22 -3 40 -7 41 -5 0 -25 2 -46 5 -28 3 -39
1 -43 -11z"/>
<path d="M1771 1006 c-7 -8 -11 -27 -9 -43 2 -22 8 -28 27 -28 13 0 26 6 29
13 2 6 -4 12 -13 12 -9 0 -13 -4 -10 -10 3 -6 -1 -7 -9 -4 -18 7 -21 39 -6 49
6 4 17 1 25 -5 18 -15 20 1 3 18 -16 16 -23 15 -37 -2z"/>
<path d="M1840 1010 c-6 -4 -10 -22 -8 -41 3 -29 7 -34 30 -34 15 -1 30 -4 34
-8 4 -4 2 -7 -5 -7 -22 0 -8 -45 15 -48 26 -4 40 24 23 45 -9 11 -9 17 0 26 9
9 14 9 20 -2 10 -15 43 -11 49 7 2 6 -4 12 -13 12 -10 0 -13 -5 -9 -12 4 -7 3
-8 -4 -4 -13 8 -16 56 -4 56 4 0 13 -5 20 -12 9 -9 12 -8 12 4 0 23 -30 31
-50 13 -14 -12 -19 -13 -22 -3 -5 13 -70 19 -88 8z m30 -40 c0 -31 -16 -41
-26 -15 -8 19 2 45 16 45 5 0 10 -13 10 -30z m48 5 c-2 -14 -7 -26 -13 -26 -5
0 -11 12 -13 26 -2 18 1 25 13 25 12 0 15 -7 13 -25z"/>
<path d="M2019 1004 c-6 -7 -9 -25 -7 -41 2 -22 8 -28 28 -30 14 0 29 -1 34
-2 5 -1 3 -8 -4 -16 -17 -20 -5 -45 20 -45 24 0 37 25 23 43 -7 8 -6 22 3 42
l13 30 1 -28 c0 -19 4 -27 13 -24 6 2 10 11 8 18 -2 8 -6 22 -8 32 -4 11 0 17
11 17 11 0 16 -9 16 -29 0 -17 5 -33 10 -36 6 -3 10 -19 10 -36 0 -18 5 -29
14 -29 11 0 12 7 4 38 -20 77 -21 95 -7 90 8 -3 13 -18 13 -37 -1 -17 2 -28 7
-25 15 9 10 71 -6 77 -8 4 -17 2 -21 -4 -4 -7 -10 -6 -19 1 -14 12 -45 3 -45
-12 0 -6 -7 -4 -16 3 -21 17 -81 19 -95 3z m36 -34 c0 -13 -5 -25 -12 -27 -13
-5 -27 32 -18 47 11 18 30 5 30 -20z m45 0 c0 -31 -16 -41 -26 -15 -8 19 2 45
16 45 5 0 10 -13 10 -30z"/>
<path d="M1427 1004 c-11 -11 -8 -62 3 -69 6 -3 10 -20 10 -36 0 -24 4 -30 18
-27 14 3 17 14 17 68 0 58 -2 65 -20 68 -12 2 -24 0 -28 -4z m40 -70 c1 -32
-1 -50 -3 -39 -3 11 -7 30 -10 43 -2 13 -8 21 -13 18 -4 -3 -7 5 -6 17 3 29 3
29 18 25 7 -3 13 -27 14 -64z"/>
<path d="M720 970 c0 -5 14 -10 30 -10 17 0 30 5 30 10 0 6 -13 10 -30 10 -16
0 -30 -4 -30 -10z"/>
<path d="M1050 970 c0 -5 16 -10 35 -10 19 0 35 5 35 10 0 6 -16 10 -35 10
-19 0 -35 -4 -35 -10z"/>
<path d="M1032 821 c-6 -4 -10 -33 -9 -71 2 -55 5 -65 21 -68 10 -2 23 2 28
10 7 10 11 10 15 1 2 -7 16 -13 29 -13 21 0 24 4 24 39 0 42 -13 54 -43 39
-14 -7 -24 -5 -38 8 -24 21 -27 53 -4 34 12 -10 15 -10 15 3 0 17 -22 28 -38
18z m26 -102 c-1 -13 -7 -23 -13 -22 -13 3 -18 30 -11 50 10 24 29 1 24 -28z
m67 1 c0 -13 -4 -25 -10 -27 -5 -1 -10 11 -10 27 0 17 5 29 10 27 6 -2 10 -14
10 -27z"/>
<path d="M1165 816 c-17 -12 -18 -18 -8 -34 8 -13 8 -23 2 -29 -6 -6 -9 -23
-7 -39 2 -23 8 -29 28 -29 20 0 26 5 28 30 2 20 -4 38 -18 52 -11 12 -20 27
-20 33 0 14 17 13 23 -2 2 -7 8 -10 13 -5 4 4 1 14 -7 22 -13 13 -17 13 -34 1z
m30 -96 c0 -13 -4 -25 -10 -27 -5 -1 -10 11 -10 27 0 17 5 29 10 27 6 -2 10
-14 10 -27z"/>
<path d="M1412 818 c-18 -18 -15 -33 14 -61 27 -27 29 -62 4 -62 -8 0 -17 11
-18 25 -6 41 -21 53 -46 37 -18 -12 -23 -12 -34 -1 -20 22 -42 5 -42 -31 0
-19 4 -37 10 -40 6 -4 5 -13 -2 -25 -15 -24 2 -46 26 -37 18 7 22 43 5 49 -7
2 -5 9 5 17 14 12 16 9 16 -28 l0 -41 55 0 c30 0 55 3 55 8 0 4 -20 6 -45 4
-43 -4 -45 -3 -45 22 0 18 6 26 18 27 68 4 67 3 70 34 2 20 -4 38 -18 52 -11
12 -20 27 -20 33 0 14 17 13 23 -2 2 -7 8 -10 12 -6 8 8 -12 38 -24 38 -4 0
-12 -5 -19 -12z m-82 -98 c0 -16 -4 -30 -10 -30 -5 0 -10 14 -10 30 0 17 5 30
10 30 6 0 10 -13 10 -30z m68 6 c6 -28 -14 -41 -33 -23 -13 14 -14 19 -3 31
16 19 32 15 36 -8z"/>
<path d="M1689 814 c-10 -12 -10 -20 -2 -34 8 -12 8 -21 2 -27 -6 -6 -9 -23
-7 -39 2 -23 8 -29 27 -29 13 0 27 7 29 15 4 13 3 13 -11 2 -19 -16 -37 -8
-37 18 0 25 17 35 35 20 22 -18 18 3 -5 28 -11 12 -20 26 -20 32 0 14 17 13
23 -2 2 -7 8 -10 12 -6 8 8 -12 38 -25 38 -4 0 -13 -7 -21 -16z"/>
<path d="M1906 815 c-21 -22 -20 -27 10 -54 15 -13 24 -30 22 -43 -4 -28 -28
-36 -28 -10 0 26 -10 52 -20 52 -4 0 -7 -12 -6 -27 0 -16 -3 -28 -9 -28 -5 0
-10 12 -10 27 0 20 -4 27 -15 23 -8 -2 -21 -1 -29 4 -25 16 -41 1 -41 -40 0
-35 3 -39 24 -39 13 0 27 6 29 13 4 9 7 9 14 0 5 -7 28 -11 53 -10 42 2 45 4
48 32 2 20 -4 38 -18 52 -11 12 -20 27 -20 33 0 14 17 13 23 -2 2 -7 8 -10 13
-5 4 4 1 14 -8 23 -14 14 -17 14 -32 -1z m-86 -95 c0 -31 -16 -41 -26 -15 -8
19 2 45 16 45 5 0 10 -13 10 -30z"/>
<path d="M892 758 c-15 -15 -16 -64 -1 -73 17 -11 24 4 12 24 -13 20 -1 47 16
37 6 -4 11 -18 11 -31 0 -13 5 -27 11 -31 7 -4 9 -21 6 -41 -5 -28 -3 -34 9
-29 9 3 24 6 35 6 17 0 19 8 19 71 0 56 -3 70 -14 66 -7 -3 -19 0 -25 6 -6 6
-14 8 -18 4 -3 -4 1 -13 11 -20 21 -15 18 -52 -4 -52 -8 0 -17 11 -18 25 -4
26 -19 50 -31 50 -4 0 -12 -5 -19 -12z m97 -122 c-9 -8 -10 0 -5 38 3 27 7 56
8 65 1 9 3 -8 5 -38 3 -33 0 -58 -8 -65z"/>
<path d="M1224 756 c-3 -8 -4 -27 -2 -43 2 -22 8 -28 28 -28 22 0 25 4 25 34
0 19 -5 36 -11 38 -6 2 -8 -10 -6 -33 3 -28 1 -35 -9 -32 -9 3 -14 19 -13 42
1 38 -3 46 -12 22z"/>
<path d="M1513 763 c-8 -3 -13 -22 -13 -44 0 -34 3 -39 23 -39 13 0 28 5 35
12 9 9 12 9 12 0 0 -7 5 -12 11 -12 7 0 9 12 4 36 -5 28 -3 35 7 32 8 -3 15
-28 18 -66 7 -85 24 -84 21 2 -2 53 0 67 11 64 7 -3 12 -18 12 -37 -1 -17 2
-31 7 -31 14 0 11 68 -3 76 -15 9 -58 10 -82 1 -9 -4 -25 -3 -34 2 -9 4 -23 6
-29 4z m33 -27 c19 -20 18 -23 -11 -28 -19 -4 -25 -1 -25 12 0 31 14 37 36 16z"/>
<path d="M1971 756 c-7 -8 -11 -27 -9 -43 2 -22 8 -28 27 -28 13 0 26 6 29 13
2 6 -4 12 -13 12 -9 0 -13 -4 -10 -10 3 -6 -1 -7 -9 -4 -18 7 -21 39 -5 49 12
8 49 -31 49 -52 0 -7 4 -13 9 -13 16 0 24 21 12 33 -16 16 -14 37 4 37 11 0
15 -16 17 -67 2 -38 7 -67 13 -65 5 1 8 18 6 37 -2 28 0 34 13 29 11 -4 16 -1
16 10 0 9 -7 16 -15 16 -8 0 -15 5 -15 10 0 6 7 10 15 10 8 0 15 7 15 15 0 8
-7 15 -15 15 -8 0 -15 -5 -15 -11 0 -6 -7 -4 -15 5 -16 16 -45 12 -45 -7 0 -5
-8 -3 -18 6 -23 21 -26 21 -41 3z"/>
</g>
</svg>
